<svg width="1200" height="675" viewBox="0 0 1200 675" fill="none" xmlns="http://www.w3.org/2000/svg">
  <rect width="1200" height="675" fill="#F7F8F4"/>
  <rect x="64" y="54" width="1072" height="567" rx="18" fill="#10251F"/>
  <rect x="88" y="78" width="1024" height="519" rx="12" fill="#F9FFF9"/>
  <text x="118" y="129" fill="#0F766E" font-family="Inter, Arial, sans-serif" font-size="22" font-weight="800" letter-spacing="1.2">eCPM Bazaar</text>
  <text x="118" y="184" fill="#10251F" font-family="Inter, Arial, sans-serif" font-size="54" font-weight="850">Revenue Drop Diagnosis</text>
  <text x="118" y="225" fill="#4E5B56" font-family="Inter, Arial, sans-serif" font-size="24" font-weight="500">Find what changed first before changing floors or mediation.</text>

  <rect x="118" y="273" width="223" height="118" rx="12" fill="#FFF7ED" stroke="#FED7AA"/>
  <text x="142" y="317" fill="#B45309" font-family="Inter, Arial, sans-serif" font-size="18" font-weight="850">Revenue</text>
  <text x="142" y="364" fill="#7C2D12" font-family="Inter, Arial, sans-serif" font-size="42" font-weight="900">-32%</text>

  <rect x="365" y="273" width="223" height="118" rx="12" fill="#F0FDF4" stroke="#BBF7D0"/>
  <text x="389" y="317" fill="#166534" font-family="Inter, Arial, sans-serif" font-size="18" font-weight="850">eCPM</text>
  <text x="389" y="364" fill="#14532D" font-family="Inter, Arial, sans-serif" font-size="42" font-weight="900">Stable</text>

  <rect x="612" y="273" width="223" height="118" rx="12" fill="#EFF6FF" stroke="#BFDBFE"/>
  <text x="636" y="317" fill="#1D4ED8" font-family="Inter, Arial, sans-serif" font-size="18" font-weight="850">Impressions</text>
  <text x="636" y="364" fill="#1E3A8A" font-family="Inter, Arial, sans-serif" font-size="42" font-weight="900">Stable</text>

  <rect x="859" y="273" width="223" height="118" rx="12" fill="#FEF2F2" stroke="#FECACA"/>
  <text x="883" y="317" fill="#B91C1C" font-family="Inter, Arial, sans-serif" font-size="18" font-weight="850">Fill Rate</text>
  <text x="883" y="364" fill="#7F1D1D" font-family="Inter, Arial, sans-serif" font-size="42" font-weight="900">81→54%</text>

  <rect x="118" y="430" width="464" height="112" rx="12" fill="#10251F"/>
  <text x="146" y="471" fill="#A7F3D0" font-family="Inter, Arial, sans-serif" font-size="18" font-weight="850">Main Cause</text>
  <text x="146" y="517" fill="#FFFFFF" font-family="Inter, Arial, sans-serif" font-size="39" font-weight="900">Fill Rate Drop</text>

  <rect x="612" y="430" width="470" height="112" rx="12" fill="#FFF7ED" stroke="#FED7AA"/>
  <text x="640" y="471" fill="#B45309" font-family="Inter, Arial, sans-serif" font-size="18" font-weight="850">First Check</text>
  <text x="640" y="508" fill="#3F2E18" font-family="Inter, Arial, sans-serif" font-size="28" font-weight="850">Mediation / ad source availability</text>

  <text x="118" y="579" fill="#64748B" font-family="Inter, Arial, sans-serif" font-size="18" font-weight="650">No SDK · No login · Anonymized CSV rows only</text>
</svg>
